# Blender v2.74 (sub 0) OBJ File: 'cone.blend'
# www.blender.org
mtllib cone.mtl
o Cone
v -1.000000 1.000000 1.000000
v 0.000000 0.000000 0.000000
v -1.000000 1.000000 -1.000000
v -1.000000 1.000000 1.000000
v 1.000000 1.000000 1.000000
v -1.000000 1.000000 -1.000000
v 1.000000 1.000000 -1.000000
vn -0.707100 -0.707100 0.000000
vn 0.000000 1.000000 0.000000
vn 0.000000 -0.707100 0.707100
vn 0.707100 -0.707100 0.000000
vn 0.000000 -0.707100 -0.707100
usemtl None
s off
f 1//1 3//1 2//1
f 4//2 5//2 7//2 6//2
f 2//3 5//3 4//3
f 7//4 5//4 2//4
f 6//5 7//5 2//5
