# Blender v2.74 (sub 0) OBJ File: 'console.blend'
# www.blender.org
mtllib console.mtl
o Plane
v -1.000000 1.500000 -0.000000
v -1.000000 0.000000 0.000000
v -1.000000 1.500000 -0.000000
v 1.000000 1.500000 0.000000
v -1.000000 2.000000 -1.000000
v 1.000000 2.000000 -1.000000
v 1.000000 1.500000 -0.000000
v 1.000000 -0.000000 0.000000
vt 0.999900 0.000100
vt 0.000100 0.000100
vt 0.000100 0.499900
vt 0.999900 0.499900
vt 0.000000 1.000000
vt 0.000000 0.500000
vt 1.000000 0.500000
vt 1.000000 1.000000
vn 0.000000 -0.000000 -1.000000
vn 0.000000 -0.894400 -0.447200
usemtl ConsoleTexturing
s off
f 8/1/1 2/2/1 1/3/1 7/4/1
f 3/5/2 5/6/2 6/7/2 4/8/2
