# Blender v2.74 (sub 0) OBJ File: 'console.blend'
# www.blender.org
mtllib console.mtl
o terminal_Plane.001
v -0.750000 1.500000 -0.000001
v 0.750000 1.500000 0.000000
v -0.750000 2.207107 -0.707107
v 0.750000 2.207107 -0.707106
vt 0.000000 0.500000
vt 0.000000 1.000000
vt 0.666667 1.000000
vt 0.666667 0.500000
vn 0.000000 -0.707100 -0.707100
usemtl ConsoleTexturing
s off
f 1/1/1 3/2/1 4/3/1 2/4/1
o button2_Circle.001
v -0.312500 1.986136 -0.486136
v -0.349079 1.983588 -0.483588
v -0.384253 1.976044 -0.476044
v -0.416669 1.963792 -0.463792
v -0.445082 1.947303 -0.447303
v -0.468401 1.927212 -0.427212
v -0.485727 1.904291 -0.404291
v -0.496397 1.879419 -0.379419
v -0.500000 1.853553 -0.353553
v -0.496397 1.827688 -0.327688
v -0.485727 1.802816 -0.302816
v -0.468401 1.779894 -0.279895
v -0.445082 1.759803 -0.259803
v -0.416669 1.743315 -0.243315
v -0.384253 1.731063 -0.231063
v -0.349079 1.723518 -0.223518
v -0.312500 1.720971 -0.220971
v -0.275920 1.723518 -0.223518
v -0.240747 1.731063 -0.231063
v -0.208330 1.743315 -0.243315
v -0.179917 1.759803 -0.259803
v -0.156599 1.779895 -0.279895
v -0.139273 1.802816 -0.302816
v -0.128603 1.827688 -0.327688
v -0.125000 1.853554 -0.353554
v -0.128603 1.879419 -0.379419
v -0.139273 1.904291 -0.404291
v -0.156600 1.927212 -0.427212
v -0.179918 1.947304 -0.447303
v -0.208331 1.963792 -0.463792
v -0.240747 1.976044 -0.476044
v -0.275921 1.983588 -0.483588
v -0.349079 2.054299 -0.412878
v -0.312500 2.056847 -0.415425
v -0.384253 2.046754 -0.405333
v -0.416669 2.034503 -0.393081
v -0.445083 2.018014 -0.376593
v -0.468401 1.997923 -0.356502
v -0.485727 1.975001 -0.333580
v -0.496397 1.950130 -0.308708
v -0.500000 1.924264 -0.282843
v -0.496397 1.898399 -0.256977
v -0.485727 1.873527 -0.232106
v -0.468401 1.850605 -0.209184
v -0.445083 1.830514 -0.189093
v -0.416669 1.814026 -0.172604
v -0.384253 1.801774 -0.160352
v -0.349079 1.794229 -0.152808
v -0.312500 1.791682 -0.150260
v -0.275921 1.794229 -0.152808
v -0.240747 1.801774 -0.160352
v -0.208330 1.814026 -0.172604
v -0.179917 1.830514 -0.189093
v -0.156599 1.850605 -0.209184
v -0.139273 1.873527 -0.232106
v -0.128603 1.898399 -0.256977
v -0.125000 1.924264 -0.282843
v -0.128603 1.950130 -0.308708
v -0.139273 1.975001 -0.333580
v -0.156600 1.997923 -0.356502
v -0.179918 2.018014 -0.376593
v -0.208331 2.034503 -0.393081
v -0.240747 2.046754 -0.405333
v -0.275921 2.054299 -0.412878
vt 0.968329 0.250000
vt 0.979880 0.230401
vt 0.988956 0.207356
vt 0.995208 0.181749
vt 0.998395 0.154565
vt 0.998395 0.126848
vt 0.995208 0.099664
vt 0.988956 0.074057
vt 0.979880 0.051011
vt 0.968329 0.031413
vt 0.954746 0.016014
vt 0.939653 0.005407
vt 0.923631 0.000000
vt 0.907295 0.000000
vt 0.891272 0.005407
vt 0.876180 0.016014
vt 0.862597 0.031413
vt 0.851045 0.051011
vt 0.841969 0.074057
vt 0.835718 0.099664
vt 0.832531 0.126848
vt 0.832531 0.154565
vt 0.835718 0.181749
vt 0.841969 0.207356
vt 0.851045 0.230401
vt 0.862597 0.250000
vt 0.876180 0.265399
vt 0.891273 0.276005
vt 0.907295 0.281413
vt 0.923631 0.281413
vt 0.939653 0.276005
vt 0.954746 0.265399
vt 0.669854 0.181749
vt 0.676105 0.207356
vt 0.685181 0.230401
vt 0.696733 0.250000
vt 0.710316 0.265399
vt 0.725408 0.276005
vt 0.741431 0.281413
vt 0.757767 0.281413
vt 0.773789 0.276005
vt 0.788882 0.265399
vt 0.802465 0.250000
vt 0.814016 0.230401
vt 0.823092 0.207356
vt 0.829344 0.181749
vt 0.829344 0.099664
vt 0.823092 0.074057
vt 0.814016 0.051011
vt 0.802465 0.031413
vt 0.788882 0.016014
vt 0.773789 0.005407
vt 0.757767 0.000000
vt 0.741431 0.000000
vt 0.725408 0.005407
vt 0.710316 0.016014
vt 0.696733 0.031413
vt 0.685181 0.051011
vt 0.676105 0.074057
vt 0.669854 0.099664
vt 0.666667 0.126848
vt 0.666667 0.154565
vt 0.916667 0.412150
vt 0.833333 0.412150
vt 0.833333 0.437757
vt 0.916667 0.437757
vt 1.000000 0.304458
vt 0.916667 0.304458
vt 0.916667 0.330065
vt 1.000000 0.330065
vt 0.750000 0.457356
vt 0.666667 0.457356
vt 0.666667 0.480401
vt 0.750000 0.480401
vt 0.916667 0.357249
vt 0.833333 0.357249
vt 0.833333 0.384966
vt 0.916667 0.384966
vt 0.833333 0.457356
vt 0.833333 0.480401
vt 0.750000 0.404565
vt 0.666667 0.404565
vt 0.666667 0.431749
vt 0.750000 0.431749
vt 0.833333 0.304458
vt 0.833333 0.330065
vt 0.750000 0.349664
vt 0.666667 0.349664
vt 0.666667 0.376848
vt 0.750000 0.376848
vt 0.833333 0.404565
vt 0.833333 0.431749
vt 1.000000 0.437757
vt 0.916667 0.460803
vt 1.000000 0.460803
vt 0.750000 0.301011
vt 0.666667 0.301011
vt 0.666667 0.324057
vt 0.750000 0.324057
vt 0.833333 0.349664
vt 0.833333 0.376848
vt 1.000000 0.384966
vt 1.000000 0.412150
vt 0.833333 0.460803
vt 0.916667 0.480401
vt 0.833333 0.301011
vt 0.833333 0.324057
vt 1.000000 0.357249
vt 0.666667 0.500000
vt 0.750000 0.500000
vt 1.000000 0.281413
vt 0.916667 0.281413
vt 0.833333 0.281413
vt 0.750000 0.281413
vt 0.666667 0.281413
vn -0.000000 0.707100 0.707100
vn 0.000000 -0.707100 -0.707100
vn -0.290300 -0.676700 0.676700
vn -0.634400 0.546600 -0.546600
vn 0.995200 0.069300 -0.069300
vn -0.634400 -0.546600 0.546600
vn -0.290300 0.676700 -0.676700
vn 0.956900 -0.205300 0.205300
vn -0.881900 -0.333300 0.333300
vn 0.773000 -0.448600 0.448600
vn 0.098000 0.703700 -0.703700
vn -0.995200 -0.069300 0.069300
vn 0.471400 -0.623600 0.623600
vn 0.471400 0.623600 -0.623600
vn -0.956900 0.205300 -0.205300
vn 0.098000 -0.703700 0.703700
vn 0.773000 0.448600 -0.448600
vn -0.098000 -0.703700 0.703700
vn -0.773000 0.448600 -0.448600
vn 0.956900 0.205300 -0.205300
vn -0.471400 -0.623600 0.623600
vn -0.471400 0.623600 -0.623600
vn 0.995200 -0.069300 0.069300
vn -0.773000 -0.448600 0.448600
vn -0.098000 0.703700 -0.703700
vn 0.881900 -0.333300 0.333300
vn -0.956900 -0.205300 0.205300
vn 0.634400 -0.546600 0.546600
vn 0.290300 0.676700 -0.676700
vn -0.995200 0.069300 -0.069300
vn 0.290300 -0.676700 0.676700
vn 0.634400 0.546600 -0.546600
vn -0.881900 0.333300 -0.333300
vn 0.881900 0.333300 -0.333300
usemtl ConsoleTexturing
s off
f 6/5/2 7/6/2 8/7/2 9/8/2 10/9/2 11/10/2 12/11/2 13/12/2 14/13/2 15/14/2 16/15/2 17/16/2 18/17/2 19/18/2 20/19/2 21/20/2 22/21/2 23/22/2 24/23/2 25/24/2 26/25/2 27/26/2 28/27/2 29/28/2 30/29/2 31/30/2 32/31/2 33/32/2 34/33/2 35/34/2 36/35/2 5/36/2
f 37/37/3 38/38/3 68/39/3 67/40/3 66/41/3 65/42/3 64/43/3 63/44/3 62/45/3 61/46/3 60/47/3 59/48/3 58/49/3 57/50/3 56/26/3 55/25/3 54/51/3 53/52/3 52/53/3 51/54/3 50/55/3 49/56/3 48/57/3 47/58/3 46/59/3 45/60/3 44/61/3 43/62/3 42/63/3 41/64/3 40/65/3 39/66/3
f 35/67/4 67/68/4 68/69/4 36/70/4
f 24/71/5 56/72/5 57/73/5 25/74/5
f 13/75/6 45/76/6 46/77/6 14/78/6
f 33/79/7 65/80/7 66/81/7 34/82/7
f 22/83/8 54/75/8 55/78/8 23/84/8
f 11/85/9 43/86/9 44/87/9 12/88/9
f 31/72/10 63/89/10 64/90/10 32/73/10
f 9/91/11 41/92/11 42/93/11 10/94/11
f 20/95/12 52/85/12 53/88/12 21/96/12
f 29/97/13 61/70/13 62/98/13 30/99/13
f 7/100/14 39/101/14 40/102/14 8/103/14
f 18/104/15 50/91/15 51/94/15 19/105/15
f 27/106/16 59/82/16 60/67/16 28/107/16
f 5/98/17 38/108/17 37/84/17 6/109/17
f 16/110/18 48/100/18 49/103/18 17/111/18
f 36/70/19 68/69/19 38/108/19 5/98/19
f 25/74/20 57/73/20 58/79/20 26/112/20
f 14/78/21 46/77/21 47/113/21 15/114/21
f 34/82/22 66/81/22 67/68/22 35/67/22
f 23/115/23 55/116/23 56/72/23 24/71/23
f 12/88/24 44/87/24 45/76/24 13/75/24
f 32/73/25 64/90/25 65/80/25 33/79/25
f 21/96/26 53/88/26 54/75/26 22/83/26
f 10/94/27 42/93/27 43/86/27 11/85/27
f 30/116/28 62/117/28 63/89/28 31/72/28
f 8/103/29 40/102/29 41/92/29 9/91/29
f 19/105/30 51/94/30 52/85/30 20/95/30
f 28/107/31 60/67/31 61/70/31 29/97/31
f 6/118/32 37/119/32 39/101/32 7/100/32
f 17/111/33 49/103/33 50/91/33 18/104/33
f 26/112/34 58/79/34 59/82/34 27/106/34
f 15/117/35 47/118/35 48/100/35 16/110/35
o button1_Circle
v 0.312500 1.986136 -0.486136
v 0.275921 1.983588 -0.483588
v 0.240747 1.976044 -0.476044
v 0.208331 1.963792 -0.463792
v 0.179917 1.947303 -0.447303
v 0.156599 1.927212 -0.427212
v 0.139273 1.904291 -0.404290
v 0.128603 1.879419 -0.379419
v 0.125000 1.853553 -0.353553
v 0.128603 1.827688 -0.327688
v 0.139273 1.802816 -0.302816
v 0.156599 1.779894 -0.279894
v 0.179917 1.759803 -0.259803
v 0.208331 1.743315 -0.243315
v 0.240747 1.731063 -0.231063
v 0.275921 1.723518 -0.223518
v 0.312500 1.720971 -0.220971
v 0.349080 1.723518 -0.223518
v 0.384253 1.731063 -0.231063
v 0.416670 1.743315 -0.243315
v 0.445083 1.759803 -0.259803
v 0.468401 1.779895 -0.279894
v 0.485727 1.802816 -0.302816
v 0.496397 1.827688 -0.327688
v 0.500000 1.853554 -0.353553
v 0.496397 1.879419 -0.379419
v 0.485727 1.904291 -0.404291
v 0.468400 1.927212 -0.427212
v 0.445082 1.947304 -0.447303
v 0.416669 1.963792 -0.463792
v 0.384253 1.976044 -0.476044
v 0.349079 1.983588 -0.483588
v 0.275921 2.054299 -0.412878
v 0.312500 2.056847 -0.415425
v 0.240747 2.046754 -0.405333
v 0.208331 2.034503 -0.393081
v 0.179917 2.018014 -0.376593
v 0.156599 1.997923 -0.356501
v 0.139273 1.975001 -0.333580
v 0.128603 1.950130 -0.308708
v 0.125000 1.924264 -0.282843
v 0.128603 1.898399 -0.256977
v 0.139273 1.873527 -0.232106
v 0.156599 1.850605 -0.209184
v 0.179917 1.830514 -0.189093
v 0.208331 1.814026 -0.172604
v 0.240747 1.801774 -0.160352
v 0.275921 1.794229 -0.152808
v 0.312500 1.791682 -0.150260
v 0.349079 1.794229 -0.152808
v 0.384253 1.801774 -0.160352
v 0.416670 1.814026 -0.172604
v 0.445083 1.830514 -0.189093
v 0.468401 1.850605 -0.209184
v 0.485727 1.873527 -0.232106
v 0.496397 1.898399 -0.256977
v 0.500000 1.924264 -0.282843
v 0.496397 1.950130 -0.308708
v 0.485727 1.975001 -0.333580
v 0.468400 1.997923 -0.356502
v 0.445082 2.018014 -0.376593
v 0.416669 2.034503 -0.393081
v 0.384253 2.046754 -0.405333
v 0.349079 2.054299 -0.412878
vt 0.995208 0.599664
vt 0.998395 0.626848
vt 0.998395 0.654565
vt 0.995208 0.681749
vt 0.988956 0.707356
vt 0.979880 0.730401
vt 0.968329 0.750000
vt 0.954746 0.765399
vt 0.939653 0.776005
vt 0.923631 0.781413
vt 0.907295 0.781413
vt 0.891272 0.776005
vt 0.876180 0.765399
vt 0.862597 0.750000
vt 0.851045 0.730401
vt 0.841969 0.707356
vt 0.835718 0.681749
vt 0.832531 0.654565
vt 0.832531 0.626848
vt 0.835718 0.599664
vt 0.841969 0.574057
vt 0.851045 0.551011
vt 0.862597 0.531413
vt 0.876180 0.516014
vt 0.891272 0.505407
vt 0.907295 0.500000
vt 0.923631 0.500000
vt 0.939653 0.505407
vt 0.954746 0.516014
vt 0.968329 0.531413
vt 0.979880 0.551011
vt 0.988956 0.574057
vt 0.773789 0.505407
vt 0.788882 0.516014
vt 0.802465 0.531413
vt 0.814016 0.551011
vt 0.823092 0.574057
vt 0.829344 0.599664
vt 0.829344 0.681749
vt 0.823092 0.707356
vt 0.814016 0.730401
vt 0.802465 0.750000
vt 0.788882 0.765399
vt 0.773789 0.776005
vt 0.757767 0.781413
vt 0.741431 0.781413
vt 0.725408 0.776005
vt 0.710316 0.765399
vt 0.696733 0.750000
vt 0.685181 0.730401
vt 0.676105 0.707356
vt 0.669854 0.681749
vt 0.666667 0.654564
vt 0.666667 0.626848
vt 0.669854 0.599664
vt 0.676105 0.574057
vt 0.685181 0.551011
vt 0.696733 0.531412
vt 0.710316 0.516014
vt 0.725408 0.505407
vt 0.741431 0.500000
vt 0.757767 0.500000
vt 0.916667 0.849664
vt 0.833333 0.849664
vt 0.833333 0.824057
vt 0.916667 0.824057
vt 1.000000 0.937757
vt 0.916667 0.937757
vt 0.916667 0.912150
vt 1.000000 0.912150
vt 0.750000 0.824057
vt 0.666667 0.824057
vt 0.666667 0.801011
vt 0.750000 0.801011
vt 0.916667 0.904565
vt 0.833333 0.904565
vt 0.833333 0.876848
vt 0.916667 0.876848
vt 0.833333 0.804458
vt 0.750000 0.804458
vt 0.750000 0.781413
vt 0.833333 0.781413
vt 0.750000 0.876848
vt 0.666667 0.876848
vt 0.666667 0.849664
vt 0.750000 0.849664
vt 0.916667 0.957356
vt 0.833333 0.957356
vt 0.833333 0.931749
vt 0.916667 0.931749
vt 0.750000 0.931749
vt 0.666667 0.931749
vt 0.666667 0.904565
vt 0.750000 0.904565
vt 0.833333 0.857249
vt 0.750000 0.857249
vt 0.750000 0.830065
vt 0.833333 0.830065
vt 1.000000 0.804458
vt 0.916667 0.804458
vt 0.916667 0.781413
vt 1.000000 0.781413
vt 0.750000 0.980401
vt 0.666667 0.980401
vt 0.666667 0.957356
vt 0.750000 0.957356
vt 0.833333 0.912150
vt 0.750000 0.912150
vt 0.750000 0.884966
vt 0.833333 0.884966
vt 1.000000 0.857249
vt 0.916667 0.857249
vt 0.916667 0.830065
vt 1.000000 0.830065
vt 0.916667 0.801011
vt 0.833333 0.801011
vt 0.833333 0.960803
vt 0.750000 0.960803
vt 0.750000 0.937757
vt 0.833333 0.937757
vt 0.916667 0.884966
vt 1.000000 0.884966
vt 0.666667 0.781413
vt 1.000000 0.960803
vt 0.916667 0.960803
vt 0.916667 0.980401
vt 0.833333 0.980401
vt 0.750000 1.000000
vt 0.666667 1.000000
vn -0.000000 0.707100 0.707100
vn 0.000000 -0.707100 -0.707100
vn -0.290300 -0.676700 0.676700
vn -0.634400 0.546600 -0.546600
vn 0.995200 0.069300 -0.069300
vn -0.634400 -0.546600 0.546600
vn -0.290300 0.676700 -0.676700
vn 0.956900 -0.205300 0.205300
vn -0.881900 -0.333300 0.333300
vn 0.773000 -0.448600 0.448600
vn 0.098000 0.703700 -0.703700
vn -0.995200 -0.069300 0.069300
vn 0.471400 -0.623600 0.623600
vn 0.471400 0.623600 -0.623600
vn -0.956900 0.205300 -0.205300
vn 0.098000 -0.703700 0.703700
vn 0.773000 0.448600 -0.448600
vn -0.098000 -0.703700 0.703700
vn -0.773000 0.448600 -0.448600
vn 0.956900 0.205300 -0.205300
vn -0.471400 -0.623600 0.623600
vn -0.471400 0.623600 -0.623600
vn 0.995200 -0.069300 0.069300
vn -0.773000 -0.448600 0.448600
vn -0.098000 0.703700 -0.703700
vn 0.881900 -0.333300 0.333300
vn -0.956900 -0.205300 0.205300
vn 0.634400 -0.546600 0.546600
vn 0.290300 0.676700 -0.676700
vn -0.995200 0.069300 -0.069300
vn 0.290300 -0.676700 0.676700
vn 0.634400 0.546600 -0.546600
vn -0.881900 0.333300 -0.333300
vn 0.881900 0.333300 -0.333300
usemtl ConsoleTexturing
s off
f 70/120/36 71/121/36 72/122/36 73/123/36 74/124/36 75/125/36 76/126/36 77/127/36 78/128/36 79/129/36 80/130/36 81/131/36 82/132/36 83/133/36 84/134/36 85/135/36 86/136/36 87/137/36 88/138/36 89/139/36 90/140/36 91/141/36 92/142/36 93/143/36 94/144/36 95/145/36 96/146/36 97/147/36 98/148/36 99/149/36 100/150/36 69/151/36
f 101/152/37 102/153/37 132/154/37 131/155/37 130/156/37 129/157/37 128/138/37 127/137/37 126/158/37 125/159/37 124/160/37 123/161/37 122/162/37 121/163/37 120/164/37 119/165/37 118/166/37 117/167/37 116/168/37 115/169/37 114/170/37 113/171/37 112/172/37 111/173/37 110/174/37 109/175/37 108/176/37 107/177/37 106/178/37 105/179/37 104/180/37 103/181/37
f 99/182/38 131/183/38 132/184/38 100/185/38
f 88/186/39 120/187/39 121/188/39 89/189/39
f 77/190/40 109/191/40 110/192/40 78/193/40
f 97/194/41 129/195/41 130/196/41 98/197/41
f 86/198/42 118/199/42 119/200/42 87/201/42
f 75/202/43 107/203/43 108/204/43 76/205/43
f 95/206/44 127/207/44 128/208/44 96/209/44
f 73/210/45 105/211/45 106/212/45 74/213/45
f 84/214/46 116/215/46 117/216/46 85/217/46
f 93/218/47 125/219/47 126/220/47 94/221/47
f 71/222/48 103/223/48 104/224/48 72/225/48
f 82/226/49 114/227/49 115/228/49 83/229/49
f 91/230/50 123/231/50 124/232/50 92/233/50
f 69/234/51 102/235/51 101/201/51 70/220/51
f 80/236/52 112/237/52 113/238/52 81/239/52
f 100/185/53 132/184/53 102/235/53 69/234/53
f 89/189/54 121/188/54 122/240/54 90/241/54
f 78/193/55 110/192/55 111/242/55 79/200/55
f 98/197/56 130/196/56 131/183/56 99/182/56
f 87/243/57 119/244/57 120/187/57 88/186/57
f 76/205/58 108/204/58 109/191/58 77/190/58
f 96/209/59 128/208/59 129/195/59 97/194/59
f 85/217/60 117/216/60 118/199/60 86/198/60
f 74/213/61 106/212/61 107/203/61 75/202/61
f 94/245/62 126/246/62 127/207/62 95/206/62
f 72/225/63 104/224/63 105/211/63 73/210/63
f 83/229/64 115/228/64 116/215/64 84/214/64
f 92/233/65 124/232/65 125/219/65 93/218/65
f 70/247/66 101/248/66 103/223/66 71/222/66
f 81/239/67 113/238/67 114/227/67 82/226/67
f 90/241/68 122/240/68 123/231/68 91/230/68
f 79/246/69 111/222/69 112/237/69 80/236/69
o grate_Plane
v -0.750000 1.500000 -0.000000
v -0.750000 0.000000 -0.000000
v 0.750000 1.500000 0.000000
v 0.750000 -0.000000 -0.000000
vt 0.666667 0.000100
vt 0.000100 0.000100
vt 0.000100 0.499900
vt 0.666667 0.499900
vn 0.000000 0.000000 -1.000000
usemtl ConsoleTexturing
s off
f 136/249/70 134/250/70 133/251/70 135/252/70
