# Blender v2.77 (sub 0) OBJ File: 'cube.blend'
# www.blender.org
mtllib cube.mtl
o Cube
v 1.000000 -1.000000 -1.000000
v 1.000000 -1.000000 1.000000
v -1.000000 -1.000000 1.000000
v -1.000000 -1.000000 -1.000000
v 1.000000 1.000000 -0.999999
v 0.999999 1.000000 1.000001
v -1.000000 1.000000 1.000000
v -1.000000 1.000000 -1.000000
vt 0.4966 0.5010
vt 0.2481 0.5010
vt 0.2481 0.7495
vt 0.4966 0.7495
vt 0.4966 0.2525
vt 0.4966 0.0040
vt 0.2481 0.0040
vt 0.2481 0.2525
vt -0.0004 0.5010
vt -0.0004 0.7495
vt 0.2481 0.9980
vt 0.4966 0.9980
vt 0.7451 0.5010
vt 0.7451 0.7495
vn 0.0000 -1.0000 0.0000
vn 0.0000 1.0000 0.0000
vn 1.0000 0.0000 0.0000
vn -0.0000 -0.0000 1.0000
vn -1.0000 -0.0000 -0.0000
vn 0.0000 0.0000 -1.0000
usemtl Material
s off
f 1/1/1 2/2/1 3/3/1 4/4/1
f 5/5/2 8/6/2 7/7/2 6/8/2
f 1/1/3 5/5/3 6/8/3 2/2/3
f 2/2/4 6/9/4 7/10/4 3/3/4
f 3/3/5 7/11/5 8/12/5 4/4/5
f 5/13/6 1/1/6 4/4/6 8/14/6
