# Blender v2.77 (sub 0) OBJ File: 'cylinder.blend'
# www.blender.org
mtllib cylinder.mtl
o Cylinder
v 0.000000 -1.000000 -1.000000
v 0.000000 1.000000 -1.000000
v 0.195090 -1.000000 -0.980785
v 0.195090 1.000000 -0.980785
v 0.382683 -1.000000 -0.923880
v 0.382683 1.000000 -0.923880
v 0.555570 -1.000000 -0.831470
v 0.555570 1.000000 -0.831470
v 0.707107 -1.000000 -0.707107
v 0.707107 1.000000 -0.707107
v 0.831470 -1.000000 -0.555570
v 0.831470 1.000000 -0.555570
v 0.923880 -1.000000 -0.382683
v 0.923880 1.000000 -0.382683
v 0.980785 -1.000000 -0.195090
v 0.980785 1.000000 -0.195090
v 1.000000 -1.000000 -0.000000
v 1.000000 1.000000 -0.000000
v 0.980785 -1.000000 0.195090
v 0.980785 1.000000 0.195090
v 0.923880 -1.000000 0.382683
v 0.923880 1.000000 0.382683
v 0.831470 -1.000000 0.555570
v 0.831470 1.000000 0.555570
v 0.707107 -1.000000 0.707107
v 0.707107 1.000000 0.707107
v 0.555570 -1.000000 0.831470
v 0.555570 1.000000 0.831470
v 0.382683 -1.000000 0.923880
v 0.382683 1.000000 0.923880
v 0.195090 -1.000000 0.980785
v 0.195090 1.000000 0.980785
v -0.000000 -1.000000 1.000000
v -0.000000 1.000000 1.000000
v -0.195091 -1.000000 0.980785
v -0.195091 1.000000 0.980785
v -0.382684 -1.000000 0.923879
v -0.382684 1.000000 0.923879
v -0.555571 -1.000000 0.831469
v -0.555571 1.000000 0.831469
v -0.707107 -1.000000 0.707106
v -0.707107 1.000000 0.707106
v -0.831470 -1.000000 0.555570
v -0.831470 1.000000 0.555570
v -0.923880 -1.000000 0.382683
v -0.923880 1.000000 0.382683
v -0.980785 -1.000000 0.195089
v -0.980785 1.000000 0.195089
v -1.000000 -1.000000 -0.000001
v -1.000000 1.000000 -0.000001
v -0.980785 -1.000000 -0.195091
v -0.980785 1.000000 -0.195091
v -0.923879 -1.000000 -0.382684
v -0.923879 1.000000 -0.382684
v -0.831469 -1.000000 -0.555571
v -0.831469 1.000000 -0.555571
v -0.707106 -1.000000 -0.707108
v -0.707106 1.000000 -0.707108
v -0.555569 -1.000000 -0.831470
v -0.555569 1.000000 -0.831470
v -0.382682 -1.000000 -0.923880
v -0.382682 1.000000 -0.923880
v -0.195089 -1.000000 -0.980786
v -0.195089 1.000000 -0.980786
v 0.195090 1.000000 -0.980785
v 0.000000 1.000000 -1.000000
v 0.382683 1.000000 -0.923880
v 0.555570 1.000000 -0.831470
v 0.707107 1.000000 -0.707107
v 0.831470 1.000000 -0.555570
v 0.923880 1.000000 -0.382683
v 0.980785 1.000000 -0.195090
v 1.000000 1.000000 -0.000000
v 0.980785 1.000000 0.195090
v 0.923880 1.000000 0.382683
v 0.831470 1.000000 0.555570
v 0.707107 1.000000 0.707107
v 0.555570 1.000000 0.831470
v 0.382683 1.000000 0.923880
v 0.195090 1.000000 0.980785
v -0.000000 1.000000 1.000000
v -0.195091 1.000000 0.980785
v -0.382684 1.000000 0.923879
v -0.555571 1.000000 0.831469
v -0.707107 1.000000 0.707106
v -0.831470 1.000000 0.555570
v -0.923880 1.000000 0.382683
v -0.980785 1.000000 0.195089
v -1.000000 1.000000 -0.000001
v -0.980785 1.000000 -0.195091
v -0.923879 1.000000 -0.382684
v -0.831469 1.000000 -0.555571
v -0.707106 1.000000 -0.707108
v -0.555569 1.000000 -0.831470
v -0.382682 1.000000 -0.923880
v -0.195089 1.000000 -0.980786
v 0.000000 -1.000000 -1.000000
v 0.195090 -1.000000 -0.980785
v 0.382683 -1.000000 -0.923880
v 0.555570 -1.000000 -0.831470
v 0.707107 -1.000000 -0.707107
v 0.831470 -1.000000 -0.555570
v 0.923880 -1.000000 -0.382683
v 0.980785 -1.000000 -0.195090
v 1.000000 -1.000000 -0.000000
v 0.980785 -1.000000 0.195090
v 0.923880 -1.000000 0.382683
v 0.831470 -1.000000 0.555570
v 0.707107 -1.000000 0.707107
v 0.555570 -1.000000 0.831470
v 0.382683 -1.000000 0.923880
v 0.195090 -1.000000 0.980785
v -0.000000 -1.000000 1.000000
v -0.195091 -1.000000 0.980785
v -0.382684 -1.000000 0.923879
v -0.555571 -1.000000 0.831469
v -0.707107 -1.000000 0.707106
v -0.831470 -1.000000 0.555570
v -0.923880 -1.000000 0.382683
v -0.980785 -1.000000 0.195089
v -1.000000 -1.000000 -0.000001
v -0.980785 -1.000000 -0.195091
v -0.923879 -1.000000 -0.382684
v -0.831469 -1.000000 -0.555571
v -0.707106 -1.000000 -0.707108
v -0.555569 -1.000000 -0.831470
v -0.382682 -1.000000 -0.923880
v -0.195089 -1.000000 -0.980786
vt 0.5893 0.1109
vt 0.5893 0.4958
vt 0.5485 0.4958
vt 0.5485 0.1109
vt 0.5085 0.4958
vt 0.5085 0.1109
vt 0.4708 0.4958
vt 0.4708 0.1109
vt 0.4369 0.4958
vt 0.4369 0.1109
vt 0.4080 0.4958
vt 0.4080 0.1109
vt 0.9961 0.1081
vt 0.9961 0.4931
vt 0.9622 0.4931
vt 0.9622 0.1081
vt 0.9245 0.4931
vt 0.9245 0.1081
vt 0.8845 0.4931
vt 0.8845 0.1081
vt 0.8437 0.4931
vt 0.8437 0.1081
vt 0.8037 0.4931
vt 0.8037 0.1081
vt 0.7660 0.4931
vt 0.7660 0.1081
vt 0.7321 0.4931
vt 0.7321 0.1081
vt 0.4080 0.8807
vt 0.4080 0.4958
vt 0.4419 0.4958
vt 0.4419 0.8807
vt 0.4796 0.4958
vt 0.4796 0.8807
vt 0.5196 0.4958
vt 0.5196 0.8807
vt 0.5604 0.4958
vt 0.5604 0.8807
vt 0.6004 0.4958
vt 0.6004 0.8807
vt 0.6381 0.4958
vt 0.6381 0.8807
vt 0.6721 0.4958
vt 0.6721 0.8807
vt 0.7009 0.4958
vt 0.7009 0.8807
vt 0.7348 0.4958
vt 0.7348 0.8807
vt 0.7725 0.4958
vt 0.7725 0.8807
vt 0.8125 0.4958
vt 0.8125 0.8807
vt 0.8533 0.4958
vt 0.8533 0.8807
vt 0.8933 0.4958
vt 0.8933 0.8807
vt 0.9310 0.4958
vt 0.9310 0.8807
vt 0.9650 0.4958
vt 0.9650 0.8807
vt 0.9938 0.4958
vt 0.9938 0.8807
vt 0.7298 0.1109
vt 0.7298 0.4958
vt 0.7009 0.4958
vt 0.7009 0.1109
vt 0.6670 0.4958
vt 0.6670 0.1109
vt 0.1805 0.8770
vt 0.1405 0.8697
vt 0.1028 0.8552
vt 0.0689 0.8343
vt 0.0400 0.8076
vt 0.0174 0.7762
vt 0.0018 0.7414
vt -0.0062 0.7044
vt -0.0062 0.6666
vt 0.0018 0.6296
vt 0.0174 0.5948
vt 0.0400 0.5634
vt 0.0689 0.5367
vt 0.1028 0.5158
vt 0.1405 0.5013
vt 0.1805 0.4940
vt 0.2213 0.4940
vt 0.2613 0.5013
vt 0.2990 0.5158
vt 0.3329 0.5367
vt 0.3618 0.5634
vt 0.3844 0.5948
vt 0.4001 0.6296
vt 0.4080 0.6666
vt 0.4080 0.7044
vt 0.4001 0.7414
vt 0.3844 0.7762
vt 0.3618 0.8076
vt 0.3329 0.8343
vt 0.2990 0.8552
vt 0.2613 0.8697
vt 0.2213 0.8770
vt 0.6293 0.4958
vt 0.6293 0.1109
vt -0.0062 0.3213
vt -0.0062 0.2835
vt 0.0018 0.2465
vt 0.0174 0.2117
vt 0.0400 0.1803
vt 0.0689 0.1536
vt 0.1028 0.1327
vt 0.1405 0.1182
vt 0.1805 0.1109
vt 0.2213 0.1109
vt 0.2613 0.1182
vt 0.2990 0.1327
vt 0.3329 0.1536
vt 0.3618 0.1803
vt 0.3844 0.2117
vt 0.4001 0.2465
vt 0.4080 0.2835
vt 0.4080 0.3213
vt 0.4001 0.3583
vt 0.3844 0.3931
vt 0.3618 0.4245
vt 0.3329 0.4512
vt 0.2990 0.4722
vt 0.2613 0.4866
vt 0.2213 0.4940
vt 0.1805 0.4940
vt 0.1405 0.4866
vt 0.1028 0.4722
vt 0.0689 0.4512
vt 0.0400 0.4245
vt 0.0174 0.3931
vt 0.0018 0.3583
vn 0.0000 0.0000 -1.0000
vn 0.1951 0.0000 -0.9808
vn 0.3827 0.0000 -0.9239
vn 0.5556 0.0000 -0.8314
vn 0.7071 0.0000 -0.7071
vn 0.8314 0.0000 -0.5556
vn 0.9239 0.0000 -0.3827
vn 0.9808 0.0000 -0.1951
vn 1.0000 0.0000 0.0000
vn 0.9808 0.0000 0.1951
vn 0.9239 0.0000 0.3827
vn 0.8314 0.0000 0.5556
vn 0.7071 0.0000 0.7071
vn 0.5556 0.0000 0.8314
vn 0.3827 0.0000 0.9239
vn 0.1951 0.0000 0.9808
vn 0.0000 0.0000 1.0000
vn -0.1951 0.0000 0.9808
vn -0.3827 0.0000 0.9239
vn -0.5556 0.0000 0.8314
vn -0.7071 0.0000 0.7071
vn -0.8314 0.0000 0.5556
vn -0.9239 0.0000 0.3827
vn -0.9808 0.0000 0.1951
vn -1.0000 0.0000 0.0000
vn -0.9808 0.0000 -0.1951
vn -0.9239 0.0000 -0.3827
vn -0.8314 0.0000 -0.5556
vn -0.7071 0.0000 -0.7071
vn -0.5556 0.0000 -0.8314
vn -0.3827 0.0000 -0.9239
vn 0.0000 1.0000 0.0000
vn -0.1951 0.0000 -0.9808
vn 0.0000 -1.0000 0.0000
usemtl None
s 1
f 97/1/1 66/2/1 65/3/2 98/4/2
f 98/4/2 65/3/2 67/5/3 99/6/3
f 99/6/3 67/5/3 68/7/4 100/8/4
f 100/8/4 68/7/4 69/9/5 101/10/5
f 101/10/5 69/9/5 70/11/6 102/12/6
f 102/13/6 70/14/6 71/15/7 103/16/7
f 103/16/7 71/15/7 72/17/8 104/18/8
f 104/18/8 72/17/8 73/19/9 105/20/9
f 105/20/9 73/19/9 74/21/10 106/22/10
f 106/22/10 74/21/10 75/23/11 107/24/11
f 107/24/11 75/23/11 76/25/12 108/26/12
f 108/26/12 76/25/12 77/27/13 109/28/13
f 109/29/13 77/30/13 78/31/14 110/32/14
f 110/32/14 78/31/14 79/33/15 111/34/15
f 111/34/15 79/33/15 80/35/16 112/36/16
f 112/36/16 80/35/16 81/37/17 113/38/17
f 113/38/17 81/37/17 82/39/18 114/40/18
f 114/40/18 82/39/18 83/41/19 115/42/19
f 115/42/19 83/41/19 84/43/20 116/44/20
f 116/44/20 84/43/20 85/45/21 117/46/21
f 117/46/21 85/45/21 86/47/22 118/48/22
f 118/48/22 86/47/22 87/49/23 119/50/23
f 119/50/23 87/49/23 88/51/24 120/52/24
f 120/52/24 88/51/24 89/53/25 121/54/25
f 121/54/25 89/53/25 90/55/26 122/56/26
f 122/56/26 90/55/26 91/57/27 123/58/27
f 123/58/27 91/57/27 92/59/28 124/60/28
f 124/60/28 92/59/28 93/61/29 125/62/29
f 125/63/29 93/64/29 94/65/30 126/66/30
f 126/66/30 94/65/30 95/67/31 127/68/31
f 4/69/32 2/70/32 96/71/32 62/72/32 60/73/32 58/74/32 56/75/32 54/76/32 52/77/32 50/78/32 48/79/32 46/80/32 44/81/32 42/82/32 40/83/32 38/84/32 36/85/32 34/86/32 32/87/32 30/88/32 28/89/32 26/90/32 24/91/32 22/92/32 20/93/32 18/94/32 16/95/32 14/96/32 12/97/32 10/98/32 8/99/32 6/100/32
f 127/68/31 95/67/31 64/101/33 128/102/33
f 128/102/33 64/101/33 66/2/1 97/1/1
f 1/103/34 3/104/34 5/105/34 7/106/34 9/107/34 11/108/34 13/109/34 15/110/34 17/111/34 19/112/34 21/113/34 23/114/34 25/115/34 27/116/34 29/117/34 31/118/34 33/119/34 35/120/34 37/121/34 39/122/34 41/123/34 43/124/34 45/125/34 47/126/34 49/127/34 51/128/34 53/129/34 55/130/34 57/131/34 59/132/34 61/133/34 63/134/34
