# Blender v2.77 (sub 0) OBJ File: 'lighter.blend'
# www.blender.org
mtllib lighter.mtl
o Tip
v 0.000000 0.700000 -0.050000
v 0.009755 0.700000 -0.049040
v 0.019134 0.700000 -0.046194
v 0.027779 0.700000 -0.041574
v 0.035355 0.700000 -0.035356
v 0.041574 0.700000 -0.027779
v 0.046194 0.700000 -0.019134
v 0.049039 0.700000 -0.009755
v 0.050000 0.700000 -0.000000
v 0.049039 0.700000 0.009754
v 0.046194 0.700000 0.019134
v 0.041574 0.700000 0.027778
v 0.035355 0.700000 0.035355
v 0.027779 0.700000 0.041573
v 0.019134 0.700000 0.046194
v 0.009755 0.700000 0.049039
v 0.000000 0.700000 0.050000
v -0.009754 0.700000 0.049039
v -0.019134 0.700000 0.046194
v -0.027779 0.700000 0.041573
v -0.035355 0.700000 0.035355
v -0.041573 0.700000 0.027778
v -0.046194 0.700000 0.019134
v -0.049039 0.700000 0.009754
v -0.050000 0.700000 -0.000000
v -0.049039 0.700000 -0.009755
v -0.046194 0.700000 -0.019135
v -0.041573 0.700000 -0.027779
v -0.035355 0.700000 -0.035356
v -0.027778 0.700000 -0.041574
v -0.019134 0.700000 -0.046194
v -0.009754 0.700000 -0.049040
v 0.000000 0.850000 -0.000000
v 0.004877 0.700000 -0.049520
v 0.014444 0.700000 -0.047617
v 0.023456 0.700000 -0.043884
v 0.031567 0.700000 -0.038465
v 0.038464 0.700000 -0.031567
v 0.043884 0.700000 -0.023457
v 0.047617 0.700000 -0.014445
v 0.049520 0.700000 -0.004878
v 0.049520 0.700000 0.004877
v 0.047617 0.700000 0.014444
v 0.043884 0.700000 0.023456
v 0.038464 0.700000 0.031567
v 0.031567 0.700000 0.038464
v 0.023456 0.700000 0.043883
v 0.014444 0.700000 0.047616
v 0.004877 0.700000 0.049519
v -0.004877 0.700000 0.049519
v -0.014444 0.700000 0.047616
v -0.023456 0.700000 0.043883
v -0.031567 0.700000 0.038464
v -0.038464 0.700000 0.031567
v -0.043884 0.700000 0.023456
v -0.047617 0.700000 0.014444
v -0.049520 0.700000 0.004877
v -0.049520 0.700000 -0.004878
v -0.047617 0.700000 -0.014445
v -0.043884 0.700000 -0.023457
v -0.038464 0.700000 -0.031567
v -0.031567 0.700000 -0.038465
v -0.023456 0.700000 -0.043884
v -0.014444 0.700000 -0.047617
v -0.004877 0.700000 -0.049520
v 0.000000 0.808761 -0.036663
v 0.033872 0.808761 -0.014030
v 0.035958 0.808761 -0.007153
v 0.007153 0.808761 0.035958
v 0.000000 0.808761 0.036662
v -0.036662 0.808761 -0.000000
v -0.035958 0.808761 -0.007153
v 0.014030 0.808761 -0.033872
v 0.020369 0.808761 -0.030484
v 0.030484 0.808761 0.020368
v 0.025924 0.808761 0.025924
v -0.025924 0.808761 0.025924
v -0.030484 0.808761 0.020368
v -0.020368 0.808761 -0.030484
v -0.014030 0.808761 -0.033872
v 0.036662 0.808761 -0.000000
v -0.007152 0.808761 0.035958
v -0.033871 0.808761 -0.014030
v 0.025924 0.808761 -0.025924
v 0.020369 0.808761 0.030483
v -0.033872 0.808761 0.014030
v -0.007152 0.808761 -0.035958
v 0.035958 0.808761 0.007152
v -0.014030 0.808761 0.033871
v -0.030484 0.808761 -0.020369
v 0.030484 0.808761 -0.020369
v 0.014030 0.808761 0.033871
v -0.035958 0.808761 0.007152
v 0.007153 0.808761 -0.035958
v 0.033872 0.808761 0.014030
v -0.020368 0.808761 0.030483
v -0.025924 0.808761 -0.025925
v 0.046074 0.754380 -0.009165
v 0.000000 0.754380 0.046976
v -0.046074 0.754380 -0.009165
v 0.026099 0.754380 -0.039060
v 0.033217 0.754380 0.033217
v -0.039059 0.754380 0.026098
v -0.017977 0.754380 -0.043401
v 0.046976 0.754380 -0.000000
v -0.009165 0.754380 0.046073
v -0.043400 0.754380 -0.017977
v 0.033217 0.754380 -0.033218
v 0.026099 0.754380 0.039059
v -0.043400 0.754380 0.017977
v -0.009164 0.754380 -0.046074
v 0.046074 0.754380 0.009164
v -0.017977 0.754380 0.043400
v -0.039059 0.754380 -0.026099
v 0.039059 0.754380 -0.026099
v 0.017977 0.754380 0.043400
v -0.046074 0.754380 0.009164
v 0.009165 0.754380 -0.046074
v 0.043400 0.754380 0.017977
v -0.026099 0.754380 0.039059
v -0.033217 0.754380 -0.033218
v 0.000000 0.754380 -0.046977
v 0.043400 0.754380 -0.017977
v 0.009165 0.754380 0.046073
v -0.046976 0.754380 -0.000000
v 0.017977 0.754380 -0.043401
v 0.039059 0.754380 0.026098
v -0.033217 0.754380 0.033217
v -0.026098 0.754380 -0.039060
v -0.028152 0.754380 -0.037374
v -0.031164 0.754380 -0.034903
v -0.031164 0.754380 0.034902
v -0.028152 0.754380 0.037374
v 0.040312 0.754380 0.023755
v 0.042148 0.754380 0.020320
v 0.015435 0.754380 -0.044172
v 0.011707 0.754380 -0.045303
v -0.046716 0.754380 0.002643
v -0.046334 0.754380 0.006520
v 0.011707 0.754380 0.045302
v 0.015435 0.754380 0.044171
v 0.042148 0.754380 -0.020320
v 0.040312 0.754380 -0.023756
v -0.034902 0.754380 -0.031164
v -0.037374 0.754380 -0.028153
v -0.023756 0.754380 0.040311
v -0.020320 0.754380 0.042148
v 0.044172 0.754380 0.015435
v 0.045302 0.754380 0.011706
v -0.002644 0.754380 -0.046716
v -0.006521 0.754380 -0.046334
v 0.006521 0.754380 -0.046334
v 0.002644 0.754380 -0.046716
v -0.045302 0.754380 0.011706
v -0.044172 0.754380 0.015435
v 0.020320 0.754380 0.042148
v 0.023756 0.754380 0.040311
v 0.037374 0.754380 -0.028152
v 0.034903 0.754380 -0.031164
v -0.040312 0.754380 -0.023756
v -0.042148 0.754380 -0.020320
v -0.015435 0.754380 0.044171
v -0.011707 0.754380 0.045302
v 0.046334 0.754380 0.006521
v 0.046716 0.754380 0.002643
v -0.011707 0.754380 -0.045303
v -0.015435 0.754380 -0.044172
v -0.042148 0.754380 0.020320
v -0.040312 0.754380 0.023755
v 0.028152 0.754380 0.037374
v 0.031164 0.754380 0.034902
v 0.031164 0.754380 -0.034903
v 0.028152 0.754380 -0.037374
v -0.044171 0.754380 -0.015435
v -0.045302 0.754380 -0.011707
v -0.006521 0.754380 0.046334
v -0.002644 0.754380 0.046716
v 0.046716 0.754380 -0.002644
v 0.046334 0.754380 -0.006521
v -0.020320 0.754380 -0.042148
v -0.023756 0.754380 -0.040312
v -0.037374 0.754380 0.028152
v -0.034903 0.754380 0.031163
v 0.034903 0.754380 0.031163
v 0.037374 0.754380 0.028152
v 0.023756 0.754380 -0.040312
v 0.020320 0.754380 -0.042148
v -0.046334 0.754380 -0.006521
v -0.046716 0.754380 -0.002644
v 0.002644 0.754380 0.046716
v 0.006521 0.754380 0.046334
v 0.045302 0.754380 -0.011707
v 0.044172 0.754380 -0.015435
vn 0.9403 0.1855 -0.2852
vn 0.0963 0.1855 0.9779
vn -0.9779 0.1855 -0.0963
vn 0.4632 0.1855 -0.8666
vn 0.7596 0.1855 0.6234
vn -0.7596 0.1855 0.6234
vn -0.4632 0.1855 -0.8666
vn 0.9779 0.1855 -0.0963
vn -0.0963 0.1855 0.9779
vn -0.9403 0.1855 -0.2853
vn 0.6234 0.1855 -0.7596
vn 0.6234 0.1855 0.7596
vn -0.8666 0.1855 0.4632
vn -0.2853 0.1855 -0.9403
vn 0.9779 0.1855 0.0963
vn -0.2853 0.1855 0.9403
vn -0.8666 0.1855 -0.4632
vn 0.7596 0.1855 -0.6234
vn 0.4632 0.1855 0.8666
vn -0.9403 0.1855 0.2852
vn 0.0963 0.1855 -0.9779
vn -0.0963 0.1855 -0.9779
vn 0.9403 0.1855 0.2853
vn -0.4632 0.1855 0.8666
vn -0.7596 0.1855 -0.6234
vn 0.8666 0.1855 -0.4632
vn 0.2853 0.1855 0.9403
vn -0.9779 0.1855 0.0963
vn 0.2853 0.1855 -0.9403
vn 0.8666 0.1855 0.4632
vn -0.6234 0.1855 0.7596
vn -0.6234 0.1855 -0.7596
vn -0.4751 0.6626 -0.5789
vn -0.6334 0.0553 -0.7718
vn -0.4751 0.6626 0.5789
vn -0.6334 0.0553 0.7718
vn 0.6605 0.6626 0.3531
vn 0.8806 0.0553 0.4707
vn 0.2174 0.6626 -0.7167
vn 0.2898 0.0553 -0.9555
vn 0.2852 0.1855 -0.9403
vn -0.7453 0.6626 0.0734
vn -0.9937 0.0553 0.0979
vn 0.2174 0.6626 0.7167
vn 0.2898 0.0553 0.9555
vn 0.6605 0.6626 -0.3531
vn 0.8806 0.0553 -0.4707
vn -0.5789 0.6626 -0.4751
vn -0.7718 0.0553 -0.6334
vn -0.3531 0.6626 0.6605
vn -0.4707 0.0553 0.8806
vn 0.7167 0.6626 0.2174
vn 0.9555 0.0553 0.2898
vn 0.9403 0.1855 0.2852
vn -0.0734 0.6626 -0.7453
vn -0.0979 0.0553 -0.9937
vn 0.0734 0.6626 -0.7453
vn 0.0979 0.0553 -0.9937
vn -0.7167 0.6626 0.2174
vn -0.9555 0.0553 0.2898
vn 0.3531 0.6626 0.6605
vn 0.4707 0.0553 0.8806
vn 0.5789 0.6626 -0.4751
vn 0.7718 0.0553 -0.6334
vn -0.6605 0.6626 -0.3530
vn -0.8806 0.0553 -0.4707
vn -0.2174 0.6626 0.7167
vn -0.2898 0.0553 0.9555
vn 0.7453 0.6626 0.0734
vn 0.9937 0.0553 0.0979
vn -0.2174 0.6626 -0.7167
vn -0.2898 0.0553 -0.9555
vn -0.6605 0.6626 0.3530
vn -0.8806 0.0553 0.4707
vn 0.4751 0.6626 0.5789
vn 0.6334 0.0553 0.7718
vn 0.4751 0.6626 -0.5789
vn 0.6334 0.0553 -0.7718
vn -0.7167 0.6626 -0.2174
vn -0.9555 0.0553 -0.2898
vn -0.9403 0.1855 -0.2852
vn -0.0734 0.6626 0.7453
vn -0.0979 0.0553 0.9937
vn 0.7453 0.6626 -0.0734
vn 0.9937 0.0553 -0.0979
vn -0.3531 0.6626 -0.6605
vn -0.4707 0.0553 -0.8806
vn -0.5790 0.6626 0.4751
vn -0.7718 0.0553 0.6334
vn 0.5790 0.6626 0.4751
vn 0.7718 0.0553 0.6334
vn 0.3531 0.6626 -0.6605
vn 0.4707 0.0553 -0.8806
vn -0.7453 0.6626 -0.0734
vn -0.9937 0.0553 -0.0979
vn 0.0734 0.6626 0.7453
vn 0.0979 0.0553 0.9937
vn 0.7167 0.6626 -0.2174
vn 0.9555 0.0553 -0.2898
vn 0.9403 0.1855 -0.2853
vn -0.2852 0.1855 -0.9403
vn -0.2852 0.1855 0.9403
vn 0.2852 0.1855 0.9403
usemtl None
s off
f 98//1 192//1 68//1
f 99//2 190//2 70//2
f 100//3 188//3 72//3
f 101//4 186//4 74//4
f 102//5 184//5 76//5
f 103//6 182//6 78//6
f 104//7 180//7 80//7
f 105//8 178//8 81//8
f 106//9 176//9 82//9
f 107//10 174//10 83//10
f 108//11 172//11 84//11
f 109//12 170//12 85//12
f 110//13 168//13 86//13
f 111//14 166//14 87//14
f 112//15 164//15 88//15
f 113//16 162//16 89//16
f 114//17 160//17 90//17
f 115//18 158//18 91//18
f 116//19 156//19 92//19
f 117//20 154//20 93//20
f 118//21 152//21 94//21
f 122//22 150//22 66//22
f 119//23 148//23 95//23
f 120//24 146//24 96//24
f 121//25 144//25 97//25
f 123//26 142//26 67//26
f 124//27 140//27 69//27
f 125//28 138//28 71//28
f 126//29 136//29 73//29
f 127//30 134//30 75//30
f 128//31 132//31 77//31
f 129//32 130//32 79//32
f 79//33 97//33 33//33
f 130//34 62//34 131//34
f 131//32 121//32 97//32
f 77//35 96//35 33//35
f 132//36 53//36 133//36
f 133//31 120//31 96//31
f 75//37 95//37 33//37
f 134//38 44//38 135//38
f 135//30 119//30 95//30
f 73//39 94//39 33//39
f 136//40 35//40 137//40
f 137//41 118//41 94//41
f 71//42 93//42 33//42
f 138//43 57//43 139//43
f 139//28 117//28 93//28
f 69//44 92//44 33//44
f 140//45 48//45 141//45
f 141//27 116//27 92//27
f 67//46 91//46 33//46
f 142//47 39//47 143//47
f 143//26 115//26 91//26
f 97//48 90//48 33//48
f 144//49 61//49 145//49
f 145//25 114//25 90//25
f 96//50 89//50 33//50
f 146//51 52//51 147//51
f 147//24 113//24 89//24
f 95//52 88//52 33//52
f 148//53 43//53 149//53
f 149//54 112//54 88//54
f 66//55 87//55 33//55
f 150//56 65//56 151//56
f 151//22 111//22 87//22
f 94//57 66//57 33//57
f 152//58 34//58 153//58
f 153//21 122//21 66//21
f 93//59 86//59 33//59
f 154//60 56//60 155//60
f 155//20 110//20 86//20
f 92//61 85//61 33//61
f 156//62 47//62 157//62
f 157//19 109//19 85//19
f 91//63 84//63 33//63
f 158//64 38//64 159//64
f 159//18 108//18 84//18
f 90//65 83//65 33//65
f 160//66 60//66 161//66
f 161//17 107//17 83//17
f 89//67 82//67 33//67
f 162//68 51//68 163//68
f 163//16 106//16 82//16
f 88//69 81//69 33//69
f 164//70 42//70 165//70
f 165//15 105//15 81//15
f 87//71 80//71 33//71
f 166//72 64//72 167//72
f 167//14 104//14 80//14
f 86//73 78//73 33//73
f 168//74 55//74 169//74
f 169//13 103//13 78//13
f 85//75 76//75 33//75
f 170//76 46//76 171//76
f 171//12 102//12 76//12
f 84//77 74//77 33//77
f 172//78 37//78 173//78
f 173//11 101//11 74//11
f 83//79 72//79 33//79
f 174//80 59//80 175//80
f 175//81 100//81 72//81
f 82//82 70//82 33//82
f 176//83 50//83 177//83
f 177//9 99//9 70//9
f 81//84 68//84 33//84
f 178//85 41//85 179//85
f 179//8 98//8 68//8
f 80//86 79//86 33//86
f 180//87 63//87 181//87
f 181//7 129//7 79//7
f 78//88 77//88 33//88
f 182//89 54//89 183//89
f 183//6 128//6 77//6
f 76//90 75//90 33//90
f 184//91 45//91 185//91
f 185//5 127//5 75//5
f 74//92 73//92 33//92
f 186//93 36//93 187//93
f 187//4 126//4 73//4
f 72//94 71//94 33//94
f 188//95 58//95 189//95
f 189//3 125//3 71//3
f 70//96 69//96 33//96
f 190//97 49//97 191//97
f 191//2 124//2 69//2
f 68//98 67//98 33//98
f 192//99 40//99 193//99
f 193//100 123//100 67//100
f 40//99 7//99 123//99 193//99
f 68//1 192//1 193//1 67//1
f 49//97 16//97 124//97 191//97
f 70//2 190//2 191//2 69//2
f 58//95 25//95 125//95 189//95
f 72//3 188//3 189//3 71//3
f 36//93 3//93 126//93 187//93
f 74//4 186//4 187//4 73//4
f 45//91 12//91 127//91 185//91
f 76//5 184//5 185//5 75//5
f 54//89 21//89 128//89 183//89
f 78//6 182//6 183//6 77//6
f 63//87 30//87 129//87 181//87
f 80//7 180//7 181//7 79//7
f 41//85 8//85 98//85 179//85
f 81//8 178//8 179//8 68//8
f 50//83 17//83 99//83 177//83
f 82//9 176//9 177//9 70//9
f 59//80 26//80 100//80 175//80
f 83//81 174//81 175//81 72//81
f 37//78 4//78 101//78 173//78
f 84//11 172//11 173//11 74//11
f 46//76 13//76 102//76 171//76
f 85//12 170//12 171//12 76//12
f 55//74 22//74 103//74 169//74
f 86//13 168//13 169//13 78//13
f 64//72 31//72 104//72 167//72
f 87//101 166//101 167//101 80//101
f 42//70 9//70 105//70 165//70
f 88//15 164//15 165//15 81//15
f 51//68 18//68 106//68 163//68
f 89//102 162//102 163//102 82//102
f 60//66 27//66 107//66 161//66
f 90//17 160//17 161//17 83//17
f 38//64 5//64 108//64 159//64
f 91//18 158//18 159//18 84//18
f 47//62 14//62 109//62 157//62
f 92//19 156//19 157//19 85//19
f 56//60 23//60 110//60 155//60
f 93//20 154//20 155//20 86//20
f 34//58 1//58 122//58 153//58
f 94//21 152//21 153//21 66//21
f 65//56 32//56 111//56 151//56
f 66//22 150//22 151//22 87//22
f 43//53 10//53 112//53 149//53
f 95//54 148//54 149//54 88//54
f 52//51 19//51 113//51 147//51
f 96//24 146//24 147//24 89//24
f 61//49 28//49 114//49 145//49
f 97//25 144//25 145//25 90//25
f 39//47 6//47 115//47 143//47
f 67//26 142//26 143//26 91//26
f 48//45 15//45 116//45 141//45
f 69//103 140//103 141//103 92//103
f 57//43 24//43 117//43 139//43
f 71//28 138//28 139//28 93//28
f 35//40 2//40 118//40 137//40
f 73//41 136//41 137//41 94//41
f 44//38 11//38 119//38 135//38
f 75//30 134//30 135//30 95//30
f 53//36 20//36 120//36 133//36
f 77//31 132//31 133//31 96//31
f 62//34 29//34 121//34 131//34
f 79//32 130//32 131//32 97//32
f 30//34 62//34 130//34 129//34
f 21//36 53//36 132//36 128//36
f 12//38 44//38 134//38 127//38
f 3//40 35//40 136//40 126//40
f 25//43 57//43 138//43 125//43
f 16//45 48//45 140//45 124//45
f 7//47 39//47 142//47 123//47
f 29//49 61//49 144//49 121//49
f 20//51 52//51 146//51 120//51
f 11//53 43//53 148//53 119//53
f 1//56 65//56 150//56 122//56
f 2//58 34//58 152//58 118//58
f 24//60 56//60 154//60 117//60
f 15//62 47//62 156//62 116//62
f 6//64 38//64 158//64 115//64
f 28//66 60//66 160//66 114//66
f 19//68 51//68 162//68 113//68
f 10//70 42//70 164//70 112//70
f 32//72 64//72 166//72 111//72
f 23//74 55//74 168//74 110//74
f 14//76 46//76 170//76 109//76
f 5//78 37//78 172//78 108//78
f 27//80 59//80 174//80 107//80
f 18//83 50//83 176//83 106//83
f 9//85 41//85 178//85 105//85
f 31//87 63//87 180//87 104//87
f 22//89 54//89 182//89 103//89
f 13//91 45//91 184//91 102//91
f 4//93 36//93 186//93 101//93
f 26//95 58//95 188//95 100//95
f 17//97 49//97 190//97 99//97
f 8//99 40//99 192//99 98//99
o Shaft
v 0.000000 -0.000001 -0.050000
v 0.000000 0.700000 -0.050000
v 0.009755 -0.000001 -0.049040
v 0.009755 0.700000 -0.049040
v 0.019134 -0.000001 -0.046194
v 0.019134 0.700000 -0.046194
v 0.027779 -0.000001 -0.041574
v 0.027779 0.700000 -0.041574
v 0.035355 -0.000001 -0.035356
v 0.035355 0.700000 -0.035356
v 0.041574 -0.000001 -0.027779
v 0.041574 0.700000 -0.027779
v 0.046194 -0.000001 -0.019134
v 0.046194 0.700000 -0.019134
v 0.049039 -0.000001 -0.009755
v 0.049039 0.700000 -0.009755
v 0.050000 -0.000001 -0.000000
v 0.050000 0.700000 -0.000000
v 0.049039 -0.000001 0.009754
v 0.049039 0.700000 0.009754
v 0.046194 -0.000001 0.019134
v 0.046194 0.700000 0.019134
v 0.041574 -0.000001 0.027778
v 0.041574 0.700000 0.027778
v 0.035355 -0.000001 0.035355
v 0.035355 0.700000 0.035355
v 0.027779 -0.000001 0.041573
v 0.027779 0.700000 0.041573
v 0.019134 -0.000001 0.046194
v 0.019134 0.700000 0.046194
v 0.009755 -0.000001 0.049039
v 0.009755 0.700000 0.049039
v 0.000000 -0.000001 0.050000
v 0.000000 0.700000 0.050000
v -0.009754 -0.000001 0.049039
v -0.009754 0.700000 0.049039
v -0.019134 -0.000001 0.046194
v -0.019134 0.700000 0.046194
v -0.027779 -0.000001 0.041573
v -0.027779 0.700000 0.041573
v -0.035355 -0.000001 0.035355
v -0.035355 0.700000 0.035355
v -0.041573 -0.000001 0.027778
v -0.041573 0.700000 0.027778
v -0.046194 -0.000001 0.019134
v -0.046194 0.700000 0.019134
v -0.049039 -0.000001 0.009754
v -0.049039 0.700000 0.009754
v -0.050000 -0.000001 -0.000000
v -0.050000 0.700000 -0.000000
v -0.049039 -0.000001 -0.009755
v -0.049039 0.700000 -0.009755
v -0.046194 -0.000001 -0.019135
v -0.046194 0.700000 -0.019135
v -0.041573 -0.000001 -0.027779
v -0.041573 0.700000 -0.027779
v -0.035355 -0.000001 -0.035356
v -0.035355 0.700000 -0.035356
v -0.027778 -0.000001 -0.041574
v -0.027778 0.700000 -0.041574
v -0.019134 -0.000001 -0.046194
v -0.019134 0.700000 -0.046194
v -0.009754 -0.000001 -0.049040
v -0.009754 0.700000 -0.049040
vn 0.0980 0.0000 -0.9952
vn 0.2903 0.0000 -0.9569
vn 0.4714 0.0000 -0.8819
vn 0.6344 0.0000 -0.7730
vn 0.7730 0.0000 -0.6344
vn 0.8819 0.0000 -0.4714
vn 0.9569 0.0000 -0.2903
vn 0.9952 0.0000 -0.0980
vn 0.9952 0.0000 0.0980
vn 0.9569 0.0000 0.2903
vn 0.8819 0.0000 0.4714
vn 0.7730 0.0000 0.6344
vn 0.6344 0.0000 0.7730
vn 0.4714 0.0000 0.8819
vn 0.2903 0.0000 0.9569
vn 0.0980 0.0000 0.9952
vn -0.0980 0.0000 0.9952
vn -0.2903 0.0000 0.9569
vn -0.4714 0.0000 0.8819
vn -0.6344 0.0000 0.7730
vn -0.7730 0.0000 0.6344
vn -0.8819 0.0000 0.4714
vn -0.9569 0.0000 0.2903
vn -0.9952 0.0000 0.0980
vn -0.9952 0.0000 -0.0980
vn -0.9569 0.0000 -0.2903
vn -0.8819 0.0000 -0.4714
vn -0.7730 0.0000 -0.6344
vn -0.6344 0.0000 -0.7730
vn -0.4714 0.0000 -0.8819
vn -0.2903 0.0000 -0.9569
vn -0.0980 0.0000 -0.9952
vn 0.0000 -1.0000 0.0000
usemtl None
s off
f 194//104 195//104 197//104 196//104
f 196//105 197//105 199//105 198//105
f 198//106 199//106 201//106 200//106
f 200//107 201//107 203//107 202//107
f 202//108 203//108 205//108 204//108
f 204//109 205//109 207//109 206//109
f 206//110 207//110 209//110 208//110
f 208//111 209//111 211//111 210//111
f 210//112 211//112 213//112 212//112
f 212//113 213//113 215//113 214//113
f 214//114 215//114 217//114 216//114
f 216//115 217//115 219//115 218//115
f 218//116 219//116 221//116 220//116
f 220//117 221//117 223//117 222//117
f 222//118 223//118 225//118 224//118
f 224//119 225//119 227//119 226//119
f 226//120 227//120 229//120 228//120
f 228//121 229//121 231//121 230//121
f 230//122 231//122 233//122 232//122
f 232//123 233//123 235//123 234//123
f 234//124 235//124 237//124 236//124
f 236//125 237//125 239//125 238//125
f 238//126 239//126 241//126 240//126
f 240//127 241//127 243//127 242//127
f 242//128 243//128 245//128 244//128
f 244//129 245//129 247//129 246//129
f 246//130 247//130 249//130 248//130
f 248//131 249//131 251//131 250//131
f 250//132 251//132 253//132 252//132
f 252//133 253//133 255//133 254//133
f 254//134 255//134 257//134 256//134
f 256//135 257//135 195//135 194//135
f 194//136 196//136 198//136 200//136 202//136 204//136 206//136 208//136 210//136 212//136 214//136 216//136 218//136 220//136 222//136 224//136 226//136 228//136 230//136 232//136 234//136 236//136 238//136 240//136 242//136 244//136 246//136 248//136 250//136 252//136 254//136 256//136
