# Blender v2.77 (sub 0) OBJ File: 'line.blend'
# www.blender.org
mtllib line.mtl
o Line
v 1.000000 -0.999999 -0.000000
v 1.000000 1.000001 0.000000
v -0.000000 1.000000 0.000000
v 0.000000 -1.000000 -0.000000
v 1.000000 0.999999 0.000000
v 1.000000 -1.000001 -0.000000
v -0.000000 -1.000000 -0.000000
v 0.000000 1.000000 0.000000
v 1.000000 0.000000 0.999999
v 1.000000 -0.000000 -1.000001
v -0.000000 -0.000000 -1.000000
v 0.000000 0.000000 1.000000
v 1.000000 -0.000000 -0.999999
v 1.000000 0.000000 1.000001
v -0.000000 0.000000 1.000000
v 0.000000 -0.000000 -1.000000
vt 0.9999 0.9999
vt 0.0001 0.9999
vt 0.0001 0.0001
vt 0.9999 0.0001
vt 0.9999 0.9999
vt 0.0001 0.9999
vt 0.0001 0.0001
vt 0.9999 0.0001
vt 0.9999 0.9999
vt 0.0001 0.9999
vt 0.0001 0.0001
vt 0.9999 0.0001
vt 0.9999 0.9999
vt 0.0001 0.9999
vt 0.0001 0.0001
vt 0.9999 0.0001
vn -0.0000 0.0000 -1.0000
vn -0.0000 -0.0000 1.0000
vn -0.0000 -1.0000 0.0000
vn 0.0000 1.0000 -0.0000
usemtl Material
s off
f 1/1/1 4/2/1 3/3/1 2/4/1
f 5/5/2 8/6/2 7/7/2 6/8/2
f 9/9/3 12/10/3 11/11/3 10/12/3
f 13/13/4 16/14/4 15/15/4 14/16/4
