# Blender v2.77 (sub 0) OBJ File: 'panel.blend'
# www.blender.org
mtllib panel.mtl
o Panel
v -1.000000 0.000000 1.000000
v 1.000000 0.000000 1.000000
v -1.000000 0.000000 -1.000000
v 1.000000 0.000000 -1.000000
v -0.950000 0.050000 0.950000
v 0.950000 0.050000 0.950000
v -0.950000 0.050000 -0.950000
v 0.950000 0.050000 -0.950000
v -1.000000 0.000000 1.000000
vt 0.9860 0.0001
vt 0.9506 0.0349
vt 0.0353 0.0360
vt 0.0001 0.0001
vt 0.9647 0.9499
vt 0.0494 0.9510
vt 0.9999 0.9858
vt 0.0140 0.9858
vn 0.0000 0.7071 0.7071
vn 0.0000 1.0000 0.0000
vn 0.7071 0.7071 0.0000
vn 0.0000 0.7071 -0.7071
vn -0.7071 0.7071 0.0000
usemtl None
s off
f 2/1/1 6/2/1 5/3/1 9/4/1
f 5/3/2 6/2/2 8/5/2 7/6/2
f 4/7/3 8/5/3 6/2/3 2/1/3
f 3/8/4 7/6/4 8/5/4 4/7/4
f 7/6/5 3/8/5 9/4/5 5/3/5
l 1 9
